<svg width="1512" height="981" viewBox="0 0 1512 981" fill="none" xmlns="http://www.w3.org/2000/svg">
<g clip-path="url(#clip0_37_2)">
<rect width="1512" height="982" fill="#EAA459"/>
<path d="M975.5 48.8232C982.7 43.5885 1012 11.5766 1024 0H1510V982H722V964.887V928.143V878.314C722 866.234 743.333 814.223 754 789.727C741.5 811.371 754 739.595 754 710.201V651.814C754 639.231 765 621.615 782 588.898C799 556.181 778 567.255 782 533.028C786 498.802 808 420.282 820.5 398.639C833 376.995 820.5 370.955 820.5 327.669C820.5 284.382 816.5 294.952 820.5 269.282C824.5 243.612 838 223.983 846.5 206.366C855 188.749 872.5 165.596 885 143.953C897.5 122.31 902.5 122.31 917.5 102.68C932.5 83.0497 945 77.0097 954 68.4531C963 59.8965 966.5 55.3665 975.5 48.8232Z" fill="#E0974E"/>
<path d="M1143 51.5C1144.6 46.7 1174.67 16.1667 1189.5 1.5H1510V984.5H1239.5L1189.5 939C1189.5 931.167 1186.2 912.9 1173 902.5C1159.8 892.1 1155.83 882.5 1155.5 879V840.5V797.5C1155.5 782.5 1170.5 774 1189.5 726.5C1208.5 679 1189.5 699 1189.5 660V636.5C1180.33 622.167 1160.7 591 1155.5 581C1149 568.5 1143 553 1143 540C1143 527 1116.5 499 1106 469C1095.5 439 1097.5 437 1085 422C1072.5 407 1074 405 1074 379V289V220C1081.83 205.667 1097.5 175.1 1097.5 167.5C1097.5 158 1103.5 136.5 1106 126C1108.5 115.5 1110.5 104 1116.5 91C1122.5 78 1141 57.5 1143 51.5Z" fill="#BF7629"/>
<path d="M309.611 100.101L331.87 1H0V982H242.832C241.651 972.323 239.999 950.768 242.832 941.959C245.665 933.15 260.201 913.597 267.115 904.921L298.481 838.854C302.191 831.68 311.837 809.224 320.74 776.791C331.87 736.25 343 716.229 343 701.714C343 690.102 335.58 653.832 331.87 637.148C343 677.69 329.644 601.312 320.74 588.099C309.611 571.582 298.481 533.042 298.481 516.526V464.973V400.908C298.481 380.887 309.611 331.337 309.611 299.805C309.611 268.272 309.611 248.753 298.481 232.236C287.351 215.719 298.481 189.692 298.481 180.683C298.481 173.476 305.901 123.959 309.611 100.101Z" fill="#BF7629"/>
<path d="M174.913 49.6011L205 0H0V981H115.249L125.958 944.926V923.383C131.227 912.026 141.766 887.109 141.766 878.291V818.168V790.111C141.766 777.585 125.958 753.035 115.249 737.504C104.54 721.972 96.3806 681.89 96.3806 666.359V608.741C102.67 583.523 115.249 530.582 115.249 520.561C115.249 508.036 119.838 472.463 125.958 446.41C132.077 420.357 137.177 410.337 141.766 394.805C146.356 379.273 149.925 365.746 156.045 343.701C162.164 321.656 174.913 305.122 174.913 289.59C174.913 274.059 192.251 258.527 192.251 248.006C192.251 237.484 195.821 194.897 192.251 184.376C188.682 173.854 186.132 162.331 174.913 148.803C165.938 137.981 171.173 100.872 174.913 83.6706V49.6011Z" fill="#A15A13"/>
<path d="M1424.5 237.5C1426.67 211.5 1303.8 166.3 1343 43.5L1358.5 1H1512V981.5H1480V976V924.5C1480 911 1453.5 884.5 1453.5 869V800V709V624.5C1453.5 609 1480 562 1480 542V428.5C1480 417.5 1460 384 1453.5 373C1447 362 1444.5 324 1440 310.5C1436.4 299.7 1428.17 257.333 1424.5 237.5Z" fill="#A15A13"/>
</g>
<defs>
<clipPath id="clip0_37_2">
<rect width="1512" height="982" fill="white"/>
</clipPath>
</defs>
</svg>
