<svg width="168" height="82" viewBox="0 0 168 82" fill="none" xmlns="http://www.w3.org/2000/svg">
<rect width="82" height="82" rx="41" fill="url(#paint0_angular_18_258)"/>
<path d="M63.18 53V29.68C63.18 28.36 62.9893 27.304 62.608 26.512C62.256 25.6907 61.42 25.28 60.1 25.28H59.66V23.96H71.76C72.552 23.96 73.4613 24.0187 74.488 24.136C75.5147 24.224 76.556 24.4293 77.612 24.752C78.6973 25.0747 79.6947 25.5587 80.604 26.204C81.5133 26.8493 82.2467 27.7147 82.804 28.8C83.3613 29.856 83.64 31.1907 83.64 32.804C83.64 34.3293 83.3613 35.6053 82.804 36.632C82.2467 37.6293 81.528 38.436 80.648 39.052C79.7973 39.668 78.888 40.1373 77.92 40.46C76.952 40.7827 76.028 41.0027 75.148 41.12C74.2973 41.208 73.608 41.252 73.08 41.252H68.9V53H63.18ZM68.9 39.492H71.54C72.3027 39.492 73.036 39.3893 73.74 39.184C74.444 38.9787 75.0747 38.612 75.632 38.084C76.1893 37.556 76.6293 36.852 76.952 35.972C77.304 35.0627 77.48 33.9333 77.48 32.584C77.48 31.2347 77.304 30.12 76.952 29.24C76.6293 28.3307 76.1893 27.6267 75.632 27.128C75.104 26.6 74.5027 26.2333 73.828 26.028C73.1533 25.8227 72.464 25.72 71.76 25.72C71.4373 25.72 71.0413 25.7347 70.572 25.764C70.132 25.7933 69.5747 25.8813 68.9 26.028V39.492ZM88.5745 53V29.68C88.5745 28.36 88.3839 27.304 88.0025 26.512C87.6505 25.6907 86.8145 25.28 85.4945 25.28H85.0545V23.96H97.1545C97.9465 23.96 98.8559 24.0187 99.8825 24.136C100.909 24.224 101.951 24.4293 103.007 24.752C104.092 25.0747 105.089 25.5587 105.999 26.204C106.908 26.8493 107.641 27.7147 108.199 28.8C108.756 29.856 109.035 31.1907 109.035 32.804C109.035 34.3293 108.756 35.6053 108.199 36.632C107.641 37.6293 106.923 38.436 106.043 39.052C105.192 39.668 104.283 40.1373 103.315 40.46C102.347 40.7827 101.423 41.0027 100.543 41.12C99.6919 41.208 99.0025 41.252 98.4745 41.252H94.2945V53H88.5745ZM94.2945 39.492H96.9345C97.6972 39.492 98.4305 39.3893 99.1345 39.184C99.8385 38.9787 100.469 38.612 101.027 38.084C101.584 37.556 102.024 36.852 102.347 35.972C102.699 35.0627 102.875 33.9333 102.875 32.584C102.875 31.2347 102.699 30.12 102.347 29.24C102.024 28.3307 101.584 27.6267 101.027 27.128C100.499 26.6 99.8972 26.2333 99.2225 26.028C98.5479 25.8227 97.8585 25.72 97.1545 25.72C96.8319 25.72 96.4359 25.7347 95.9665 25.764C95.5265 25.7933 94.9692 25.8813 94.2945 26.028V39.492ZM127.169 53.88C124.881 53.88 122.769 53.484 120.833 52.692C118.926 51.8707 117.254 50.7413 115.817 49.304C114.409 47.8667 113.309 46.1947 112.517 44.288C111.725 42.352 111.329 40.2693 111.329 38.04C111.329 35.224 111.93 32.6867 113.133 30.428C114.336 28.1693 116.022 26.38 118.193 25.06C120.393 23.74 122.945 23.08 125.849 23.08C128.606 23.08 130.865 23.4467 132.625 24.18C134.385 24.884 135.676 25.7053 136.497 26.644C137.084 27.3773 137.421 28.3307 137.509 29.504C137.597 30.6773 137.641 31.7627 137.641 32.76H136.321C135.764 30.0613 134.737 28.1107 133.241 26.908C131.745 25.676 129.721 25.06 127.169 25.06C125.409 25.06 123.913 25.412 122.681 26.116C121.478 26.82 120.481 27.788 119.689 29.02C118.926 30.252 118.369 31.6453 118.017 33.2C117.665 34.7547 117.489 36.368 117.489 38.04C117.489 41.5893 117.914 44.3907 118.765 46.444C119.645 48.4973 120.818 49.964 122.285 50.844C123.752 51.6947 125.38 52.12 127.169 52.12C128.489 52.12 129.618 52.0173 130.557 51.812C131.496 51.6067 132.346 51.328 133.109 50.976V43.144C133.109 42.528 133.197 41.912 133.373 41.296C133.578 40.68 133.974 40.108 134.561 39.58C135.148 39.0227 135.998 38.5827 137.113 38.26C138.257 37.9373 139.768 37.776 141.645 37.776V38.876C140.648 38.876 139.929 39.2427 139.489 39.976C139.049 40.7093 138.829 41.736 138.829 43.056V50.932C137.128 51.9587 135.324 52.7067 133.417 53.176C131.51 53.6453 129.428 53.88 127.169 53.88ZM146.282 53V29.68C146.282 28.36 146.091 27.304 145.71 26.512C145.358 25.6907 144.522 25.28 143.202 25.28H142.762V23.96H161.198C162.224 23.96 163.002 24.136 163.53 24.488C164.058 24.8107 164.424 25.2507 164.63 25.808C164.835 26.336 164.938 26.8933 164.938 27.48V31.22H163.618C163.618 29.3133 163.134 27.964 162.166 27.172C161.227 26.3507 159.878 25.94 158.118 25.94H152.002V37.16H161.682V39.14H152.002V53H146.282Z" fill="black"/>
<defs>
<radialGradient id="paint0_angular_18_258" cx="0" cy="0" r="1" gradientUnits="userSpaceOnUse" gradientTransform="translate(41 41) rotate(-180) scale(52)">
<stop stop-color="#BF9C7B"/>
<stop offset="1" stop-color="#FEF51D"/>
</radialGradient>
</defs>
</svg>
